<?xml version="1.0" encoding="UTF-8" standalone="no"?>
<svg
   xmlns:dc="http://purl.org/dc/elements/1.1/"
   xmlns:cc="http://creativecommons.org/ns#"
   xmlns:rdf="http://www.w3.org/1999/02/22-rdf-syntax-ns#"
   xmlns:svg="http://www.w3.org/2000/svg"
   xmlns="http://www.w3.org/2000/svg"
   xmlns:sodipodi="http://sodipodi.sourceforge.net/DTD/sodipodi-0.dtd"
   xmlns:inkscape="http://www.inkscape.org/namespaces/inkscape"
   inkscape:version="1.0 (4035a4fb49, 2020-05-01)"
   sodipodi:docname="Logotipo de Paladini.svg"
   viewBox="0 0 512.00001 394.79212"
   height="394.79211"
   width="512"
   id="svg10"
   version="1.1">
  <metadata
     id="metadata16">
    <rdf:RDF>
      <cc:Work
         rdf:about="">
        <dc:format>image/svg+xml</dc:format>
        <dc:type
           rdf:resource="http://purl.org/dc/dcmitype/StillImage" />
        <dc:title></dc:title>
      </cc:Work>
    </rdf:RDF>
  </metadata>
  <defs
     id="defs14" />
  <sodipodi:namedview
     inkscape:current-layer="g18"
     inkscape:window-maximized="1"
     inkscape:window-y="-8"
     inkscape:window-x="-8"
     inkscape:cy="72.763819"
     inkscape:cx="10.955319"
     inkscape:zoom="0.40021827"
     showgrid="false"
     id="namedview12"
     inkscape:window-height="705"
     inkscape:window-width="1366"
     inkscape:pageshadow="2"
     inkscape:pageopacity="0"
     guidetolerance="10"
     gridtolerance="10"
     objecttolerance="10"
     borderopacity="1"
     bordercolor="#666666"
     pagecolor="#ffffff" />
  <g
     transform="translate(-103.34539,-11.494602)"
     id="g18"
     inkscape:label="Image"
     inkscape:groupmode="layer">
    <g
       transform="matrix(1.7333052,0,0,1.7333052,103.3672,11.476605)"
       id="g22">
      <path
         id="path26"
         d="M 0.07370845,115.56984 C 0.15870817,93.186794 0.16987708,92.833389 0.81977232,91.963082 1.1826471,91.477136 1.8774191,90.782646 2.3637101,90.419773 3.2102258,89.788096 3.6522373,89.76 12.743937,89.76 c 6.594427,0 10.027744,0.125126 11.236076,0.409491 2.83952,0.66825 5.588139,2.211514 7.489966,4.205379 3.202266,3.357242 4.46377,6.95693 4.494548,12.82513 0.02954,5.63234 -1.115319,9.25191 -3.851616,12.17724 -3.097651,3.31164 -5.757526,4.12842 -13.472912,4.1372 L 13.76,123.52 v 5.61028 c 0,8.82819 -0.0646,8.89926 -8.2311061,9.05625 l -5.54147699,0.10653 z M 19.615365,112.56435 c 1.49873,-0.4376 3.001723,-2.09037 3.287836,-3.61549 0.533349,-2.84299 -0.243153,-5.20835 -2.185979,-6.65888 -0.901033,-0.67272 -6.359567,-1.46779 -7.382389,-1.0753 -0.47216,0.18118 -0.534833,0.87513 -0.534833,5.92194 0,3.14419 0.108,5.82701 0.24,5.96182 0.305943,0.31245 4.974904,-0.0668 6.575365,-0.53409 z m 13.664634,25.33322 c 0,-0.25647 11.339158,-37.31598 13.488764,-44.085016 0.44688,-1.407204 2.084058,-3.240429 3.375959,-3.780221 1.214025,-0.507251 14.015397,-0.629907 14.319903,-0.137203 0.175843,0.284518 14.011484,45.82173 14.436048,47.51331 L 79.10938,138.24 h -7.177466 -7.177465 l -0.902282,-4.16 -0.902284,-4.16 h -6.635651 -6.635651 l -0.695623,2.77354 c -0.794835,3.1691 -1.58494,4.46953 -3.100252,5.10266 -1.335399,0.55797 -12.602707,0.6486 -12.602707,0.10137 z M 60.98802,119.12 c -0.09631,-0.308 -1.183494,-4.36148 -2.415971,-9.00774 -1.232477,-4.64626 -2.285248,-8.49213 -2.339494,-8.54637 -0.114966,-0.11497 -4.712557,17.19781 -4.712557,17.7457 0,0.26158 1.398154,0.36841 4.821565,0.36841 4.445337,0 4.807901,-0.0437 4.646457,-0.56 z m 22.605788,-3.8991 0.08619,-23.019105 0.941808,-0.982925 c 1.310442,-1.367641 2.524896,-1.61504 7.938192,-1.617084 l 4.72,-0.0018 v 18.240004 18.24 H 103.84 110.4 v 4.75684 c 0,4.39511 -0.0528,4.82392 -0.69373,5.63878 -1.34368,1.70821 -1.80533,1.76438 -14.502184,1.76438 H 83.50762 Z M 113.27978,137.84 c -3.2e-4,-0.6179 13.45796,-44.129869 13.94095,-45.072499 0.64233,-1.253568 2.55268,-2.791869 3.73242,-3.005498 0.57577,-0.104262 3.85457,-0.147363 7.28624,-0.09579 l 6.2394,0.09378 7.27327,23.999997 c 4.0003,13.2 7.27657,24.108 7.2806,24.24 0.004,0.132 -3.20467,0.24 -7.13045,0.24 h -7.13779 l -0.94266,-4.08 -0.94265,-4.08 -6.59867,-0.0864 -6.59867,-0.0864 -0.69722,2.77991 c -1.30926,5.22021 -1.90305,5.55283 -9.91292,5.55283 -4.41986,0 -5.79169,-0.0947 -5.79185,-0.4 z m 26.52768,-22.88 c -0.6924,-2.596 -1.75319,-6.64485 -2.35731,-8.99746 -0.60412,-2.3526 -1.15471,-4.33376 -1.22353,-4.40258 -0.0688,-0.0688 -0.72223,2.14403 -1.45202,4.91745 -0.72979,2.77343 -1.81911,6.87859 -2.42071,9.12259 l -1.09382,4.08 h 4.90314 4.90315 z m 27.45135,22.83134 c -1.45252,-0.53583 -2.33519,-1.28516 -3.05158,-2.59058 -0.47415,-0.86402 -0.52724,-3.02287 -0.52724,-21.44076 0,-19.974762 0.016,-20.507629 0.64733,-21.6 0.38335,-0.663277 1.22657,-1.413606 2.0678,-1.84 1.32588,-0.672048 1.82622,-0.719824 7.51268,-0.717376 12.97068,0.0056 18.3648,1.540173 23.5624,6.70329 3.07967,3.059254 4.80438,6.363266 5.77026,11.054086 0.55406,2.69077 0.63473,3.9893 0.50695,8.16 -0.16811,5.48733 -0.57842,7.47891 -2.2745,11.04 -2.70663,5.68289 -6.86248,9.21792 -12.83292,10.91588 -2.66956,0.75921 -19.50494,1.0076 -21.38118,0.31546 z m 16.88227,-12.03055 c 2.23844,-0.86247 4.50907,-2.97499 5.52026,-5.13587 2.05664,-4.395 1.67018,-10.94262 -0.87242,-14.78126 -1.82007,-2.74779 -4.77562,-4.16312 -9.56631,-4.58102 l -2.58262,-0.22528 v 12.88046 12.88046 l 2.8,-0.1525 c 1.83856,-0.10014 3.45278,-0.40402 4.70109,-0.88499 z m 27.05891,-10.00578 c 0,-21.321932 0.0308,-22.542671 0.59619,-23.600002 1.09954,-2.056371 2.11167,-2.381018 7.80381,-2.503123 l 5.04,-0.108115 v 22.67311 c 0,21.34755 -0.0342,22.73685 -0.58472,23.76339 -1.04988,1.9576 -2.09412,2.25973 -7.81029,2.25973 h -5.04499 z m 21.19178,-0.32931 c 0.0818,-21.14747 0.12936,-22.87707 0.65124,-23.673345 1.12647,-1.718761 2.13577,-1.980454 8.08636,-2.096653 l 5.44938,-0.106412 7.08841,14.18536 7.08841,14.18535 0.0222,-14.16 0.0222,-14.16 h 6.88822 6.88822 l -0.0882,22.8 c -0.0993,25.67154 0.0338,24.31355 -2.4824,25.32034 -1.01961,0.40796 -2.44947,0.51857 -6.6523,0.51458 l -5.35352,-0.005 -6.88,-13.19493 -6.88,-13.19492 -0.0836,13.2 -0.0836,13.2 h -6.88467 -6.88467 z m 49.27995,0.11757 c 0.0869,-22.354726 0.0982,-22.710044 0.74804,-23.580227 1.54789,-2.072768 1.94909,-2.193302 7.69124,-2.310717 l 5.26582,-0.107676 -0.0884,22.34768 -0.0884,22.34767 -0.73877,1.38405 c -1.17677,2.20461 -2.41308,2.60039 -8.1495,2.60892 l -4.72828,0.007 0.0883,-22.69673 z"
         style="fill:#ed3a43;stroke-width:0.32" />
      <path
         id="path24"
         d="M 145.76,227.23908 C 145.056,226.9163 124.824,216.02745 100.8,203.04163 76.775997,190.0558 44.591998,172.66956 29.279999,164.40553 13.968,156.14151 1.26,149.23189 1.04,149.05084 c -0.74091959,-0.60978 -0.47369349,-1.83822 0.4799999,-2.20656 1.3292394,-0.5134 2.9761148,-0.1563 8.2399998,1.7867 15.3620713,5.67045 36.5038323,10.93422 57.8655753,14.40709 16.616854,2.70148 31.911967,4.34354 52.374425,5.62284 8.81851,0.55133 36.292,0.746 46.71999,0.33104 45.82354,-1.82346 87.87316,-9.09442 119.76916,-20.70976 5.06681,-1.84515 6.46789,-2.05585 7.59604,-1.14233 1.40327,1.1363 0.74131,1.69069 -6.97973,5.84538 -3.99601,2.15025 -35.92147,19.38987 -70.94547,38.31027 -35.024,18.9204 -64.616,34.88237 -65.76,35.47105 -2.38813,1.22887 -2.88088,1.27905 -4.63999,0.47252 z M 1.2,80.934368 C 0.40431579,80.470925 0.49488859,79.147216 1.36,78.59599 1.7559999,78.343667 20.871999,67.993213 43.839999,55.594973 66.807998,43.196736 99.226301,25.6878 115.88067,16.686227 132.53505,7.6846534 146.60218,0.23156329 147.14097,0.12380461 c 1.23169,-0.24633678 -2.93124,-2.43724311 60.05902,31.60846039 28.16,15.220241 59.29841,32.044522 69.19648,37.38729 12.56681,6.783306 18.05807,9.908211 18.20065,10.357421 0.14351,0.452173 -0.0208,0.825482 -0.55311,1.256509 -1.13521,0.919232 -2.87672,0.603664 -8.92402,-1.617047 C 258.92786,69.498064 220.81822,62.283523 182.55999,59.70079 158.83653,58.09927 132.02205,58.214483 108.16,60.020464 70.822663,62.846307 35.469352,69.826144 8.3725648,79.721581 4.1645698,81.258294 2.2980149,81.573904 1.2,80.934368 Z"
         style="fill:#00a2b3;stroke-width:0.32" />
    </g>
  </g>
</svg>
